<svg xmlns="http://www.w3.org/2000/svg" xmlns:xlink="http://www.w3.org/1999/xlink" width="73.787" height="21.385" viewBox="0 0 73.787 21.385"><defs><style>.a{clip-path:url(#a);}</style><clipPath id="a"><rect width="73.787" height="21.385"/></clipPath></defs><g class="a"><ellipse cx="9.442" cy="9.442" rx="9.442" ry="9.442" transform="translate(18.884 2.501) rotate(90)"/><circle cx="2.564" cy="2.564" r="2.564" transform="translate(22.636) rotate(90)"/><g transform="translate(23.25 8.222)"><path d="M.08,13.118H1.622l.93-4.828c.13-.683.271-1.766.271-1.766h.024s.012,1,.059,1.625l.4,4.969h1.6l2.32-4.981c.33-.706.695-1.613.695-1.613h.024s-.271,1.036-.412,1.766L6.6,13.119H8.17L9.794,4.7H7.369L5.343,9.067c-.483,1.048-.86,2.178-.86,2.178H4.472s-.012-1.213-.106-2.391L4.048,4.7H1.7Zm12.069.177a3.411,3.411,0,0,0,3.356-3.627,2.615,2.615,0,0,0-2.791-2.755,3.412,3.412,0,0,0-3.4,3.568,2.65,2.65,0,0,0,2.838,2.814Zm-1.26-2.721c0-1.166.53-2.473,1.743-2.473.93,0,1.3.73,1.3,1.519,0,1.154-.518,2.485-1.743,2.485C11.254,12.106,10.889,11.4,10.889,10.575Zm7.512,2.72a3.411,3.411,0,0,0,3.356-3.627,2.615,2.615,0,0,0-2.791-2.755,3.413,3.413,0,0,0-3.4,3.568A2.65,2.65,0,0,0,18.4,13.295Zm-1.26-2.72c0-1.166.53-2.473,1.743-2.473.93,0,1.3.73,1.3,1.519,0,1.154-.518,2.485-1.743,2.485-.93,0-1.3-.707-1.3-1.531Zm7.1-3.5H22.7l-1.166,6.04h1.578l.636-3.3c.165-.883.695-1.566,1.436-1.566.671,0,.977.436.824,1.236L25.3,13.118h1.578l.73-3.815c.271-1.413-.424-2.391-1.625-2.391A2.121,2.121,0,0,0,24.1,8.031h-.035Zm3.379,6.04h1.743l.588-3.049H32c1.884,0,3.167-1.083,3.167-2.885A2.4,2.4,0,0,0,32.483,4.7H29.246Zm3.084-6.947H32.26a1.025,1.025,0,0,1,1.166,1.095A1.366,1.366,0,0,1,31.918,8.69h-1.7Zm7.489,6.948h1.5v-.059a1.193,1.193,0,0,1-.047-.836l.565-2.9c.33-1.755-.8-2.4-2.3-2.4A2.421,2.421,0,0,0,35.2,8.915h1.413a1.1,1.1,0,0,1,1.236-.86c.6,0,.942.236.942.671,0,.6-.436.648-1.566.742-1.472.118-2.744.412-2.744,2.013a1.762,1.762,0,0,0,1.919,1.778,2.122,2.122,0,0,0,1.684-.8h.024a1.47,1.47,0,0,0,.082.659ZM36,11.34c0-.824.836-.789,1.413-.895a4.706,4.706,0,0,0,1.154-.306l-.188.954a1.432,1.432,0,0,1-1.472,1.072A.8.8,0,0,1,36,11.34ZM39.7,15.1h.989c1.166,0,1.684-.471,2.284-1.684L46.1,7.078h-1.6L43.246,9.821c-.259.565-.553,1.366-.553,1.366h-.024s-.094-.813-.177-1.366L42.08,7.078H40.432l.871,4.3a7.411,7.411,0,0,1,.2,1.354c0,.754-.377,1.119-1.048,1.119h-.506Z" transform="translate(-0.08 -4.699)"/></g></g></svg>