<svg width="130" height="48" viewBox="0 0 130 48" fill="none" xmlns="http://www.w3.org/2000/svg">
<path fill-rule="evenodd" clip-rule="evenodd" d="M19.8835 0C21.9584 2.5413 24.2469 4.90135 26.7217 7.05272C25.0727 12.4011 24.1849 18.0834 24.1849 23.973C24.1849 29.8625 25.0727 35.5448 26.7217 40.8933C24.2469 43.0447 21.9584 45.4047 19.8835 47.9458C17.8086 45.4047 15.52 43.0447 13.0453 40.8933C14.6942 35.5448 15.582 29.8625 15.582 23.973C15.582 18.0834 14.6942 12.4011 13.0453 7.05276C15.52 4.90135 17.8086 2.54131 19.8835 0ZM8.31503 37.1953C5.6955 35.3594 2.91539 33.7366 4.12927e-06 32.3528C0.808715 29.7021 1.24376 26.8883 1.24376 23.973C1.24376 21.0576 0.808712 18.2438 0 15.5931C2.91539 14.2092 5.6955 12.5865 8.31503 10.7505C9.3167 14.9953 9.8467 19.4222 9.8467 23.973C9.8467 28.5237 9.3167 32.9505 8.31503 37.1953ZM29.9202 23.973C29.9202 28.5237 30.4502 32.9505 31.4519 37.1953C34.0715 35.3594 36.8515 33.7366 39.7669 32.3528C38.9583 29.7021 38.5233 26.8883 38.5233 23.973C38.5233 21.0576 38.9583 18.2438 39.7669 15.5931C36.8515 14.2091 34.0715 12.5865 31.4519 10.7505C30.4502 14.9953 29.9202 19.4222 29.9202 23.973Z" fill="#6851FF"/>
<path d="M70.7311 32.703H74.8226V13.6182H69.1001L64.465 25.5212L59.8296 13.6182H54.1357V32.703H58.1986V18.9688L63.5779 32.703H65.3517L70.7311 18.9688V32.703Z" fill="white"/>
<path fill-rule="evenodd" clip-rule="evenodd" d="M90.4593 32.703H86.8254V31.2724C85.8813 32.3882 84.2502 33.0464 82.4474 33.0464C80.2444 33.0464 77.6406 31.5585 77.6406 28.4683C77.6406 25.2351 80.2444 24.0619 82.4474 24.0619C84.2789 24.0619 85.9096 24.6342 86.8254 25.7501V23.833C86.8254 22.431 85.6235 21.5154 83.7924 21.5154C82.3044 21.5154 80.9311 22.0591 79.7579 23.1463L78.3846 20.7142C80.0727 19.2264 82.2473 18.5397 84.422 18.5397C87.5694 18.5397 90.4593 19.7986 90.4593 23.7758V32.703ZM83.9068 30.5857C85.0799 30.5857 86.2244 30.1851 86.8254 29.384V27.6672C86.2244 26.866 85.0799 26.4654 83.9068 26.4654C82.4761 26.4654 81.3029 27.238 81.3029 28.5542C81.3029 29.8418 82.4761 30.5857 83.9068 30.5857Z" fill="white"/>
<path fill-rule="evenodd" clip-rule="evenodd" d="M99.728 38.3111C97.3533 38.3111 95.4935 37.7675 93.7767 36.2509L95.4074 33.6187C96.5233 34.8489 97.9826 35.3355 99.728 35.3355C101.473 35.3355 103.534 34.5628 103.534 31.8446V30.4426C102.446 31.816 100.959 32.6173 99.2702 32.6173C95.808 32.6173 93.1758 30.1851 93.1758 25.5784C93.1758 21.0576 95.7796 18.5397 99.2702 18.5397C100.93 18.5397 102.418 19.255 103.534 20.657V18.883H107.196V31.7588C107.196 37.0236 103.133 38.3111 99.728 38.3111ZM100.415 29.384C101.617 29.384 102.933 28.6972 103.534 27.8102V23.3466C102.933 22.431 101.617 21.7729 100.415 21.7729C98.3548 21.7729 96.9241 23.2036 96.9241 25.5784C96.9241 27.9533 98.3548 29.384 100.415 29.384Z" fill="white"/>
<path fill-rule="evenodd" clip-rule="evenodd" d="M114.778 14.6769C114.778 15.8787 113.805 16.8515 112.603 16.8515C111.43 16.8515 110.429 15.8787 110.429 14.6769C110.429 13.4752 111.43 12.5023 112.603 12.5023C113.805 12.5023 114.778 13.4752 114.778 14.6769ZM114.434 32.703H110.801V18.883H114.434V32.703Z" fill="white"/>
<path d="M117.15 25.7787C117.15 30.042 120.212 33.0464 124.475 33.0464C127.308 33.0464 129.025 31.816 129.94 30.5285L127.565 28.3252C126.907 29.2409 125.906 29.8131 124.647 29.8131C122.444 29.8131 120.899 28.1822 120.899 25.7787C120.899 23.3752 122.444 21.7729 124.647 21.7729C125.906 21.7729 126.907 22.3165 127.565 23.2608L129.94 21.0576C129.025 19.77 127.308 18.5397 124.475 18.5397C120.212 18.5397 117.15 21.544 117.15 25.7787Z" fill="white"/>
</svg>
